<?xml version="1.0" encoding="UTF-8"?>
<svg id="Ebene_1" data-name="Ebene 1" xmlns="http://www.w3.org/2000/svg" xmlns:xlink="http://www.w3.org/1999/xlink" viewBox="0 0 119.6533 34.56055">
  <defs>
    <style>
      .cls-1 {
        fill: url(#Unbenannter_Verlauf_24-5);
      }

      .cls-2 {
        fill: url(#Unbenannter_Verlauf_24-3);
      }

      .cls-3 {
        fill: url(#Unbenannter_Verlauf_24-2);
      }

      .cls-4 {
        fill: url(#Unbenannter_Verlauf_24-4);
      }

      .cls-5 {
        fill: url(#Unbenannter_Verlauf_24);
      }
    </style>
    <linearGradient id="Unbenannter_Verlauf_24" data-name="Unbenannter Verlauf 24" x1="-5.92318" y1="3.41975" x2="9.61361" y2="30.33025" gradientTransform="matrix(1, 0, 0, 1, 0, 0)" gradientUnits="userSpaceOnUse">
      <stop offset="0" stop-color="#ef6700"/>
      <stop offset=".9988" stop-color="#ffe900"/>
    </linearGradient>
    <linearGradient id="Unbenannter_Verlauf_24-2" data-name="Unbenannter Verlauf 24" x1="16.55638" y1="9.25734" x2="31.49423" y2="35.13046" xlink:href="#Unbenannter_Verlauf_24"/>
    <linearGradient id="Unbenannter_Verlauf_24-3" data-name="Unbenannter Verlauf 24" x1="34.02491" y1="3.92753" x2="49.29975" y2="30.38432" xlink:href="#Unbenannter_Verlauf_24"/>
    <linearGradient id="Unbenannter_Verlauf_24-4" data-name="Unbenannter Verlauf 24" x1="48.25148" y1="8.64688" x2="63.30358" y2="34.71788" xlink:href="#Unbenannter_Verlauf_24"/>
    <linearGradient id="Unbenannter_Verlauf_24-5" data-name="Unbenannter Verlauf 24" x1="80.8187" y1="3.16171" x2="100.87303" y2="37.89683" xlink:href="#Unbenannter_Verlauf_24"/>
  </defs>
  <g>
    <path class="cls-5" d="M3.69043,33.75H0V0H3.69043V33.75Z"/>
    <path class="cls-3" d="M33.88525,33.75h-3.64502v-3.59961c-2.67041,2.94043-5.74512,4.41016-9.2251,4.41016-3.48047,0-6.45752-1.2832-8.93262-3.84766-2.47461-2.56543-3.7124-5.625-3.7124-9.18066,0-3.55469,1.24463-6.59863,3.73486-9.13477,2.49023-2.53467,5.52734-3.80225,9.11279-3.80225,3.58447,0,6.59229,1.45557,9.02246,4.36475v-3.73486h3.64502v24.5249Zm-12.60009-2.65527c2.48975,0,4.63525-.89941,6.43506-2.69922,1.7998-1.80078,2.7002-4.04297,2.7002-6.72754s-.88525-4.93457-2.65527-6.75c-1.77051-1.81543-3.9375-2.72266-6.50244-2.72266s-4.73291,.9375-6.50244,2.8125c-1.77051,1.875-2.65527,4.08789-2.65527,6.6377s.90039,4.7627,2.7002,6.63672c1.7998,1.87598,3.95996,2.8125,6.47998,2.8125h-.00002Z"/>
    <path class="cls-2" d="M41.58008,0c.81006,0,1.49219,.27783,2.04736,.83252,.55469,.55566,.83252,1.23047,.83252,2.02539s-.27783,1.47021-.83252,2.0249c-.55518,.55518-1.23047,.83252-2.0249,.83252-.79541,0-1.47021-.28467-2.0249-.85498-.55566-.56982-.83252-1.23779-.83252-2.00244,0-.76514,.27686-1.43262,.83252-2.00293C40.13233,.28564,40.79981,0,41.58008,0Zm1.89014,33.75h-3.73535V9.2251h3.73535v24.5249Z"/>
    <path class="cls-4" d="M65.16016,9.2251l-12.51025,21.1499h12.33008v3.375h-18.81006l12.51025-21.19434h-11.43018v-3.33057h17.91016Z"/>
  </g>
  <path class="cls-1" d="M116.92019,21.10063c-1.55701,1.89495-2.99403,3.37191-4.10166,4.4358-3.23997,3.11201-4.83651,3.81811-5.81854,4.15145-1.59393,.54105-2.76151,.50488-3.25828,.4684-1.07091-.07864-1.92281-.37158-2.47392-.6087,5.18009-5.07566,10.36019-10.15133,15.54028-15.22699-.66497-1.01575-1.9463-2.687-4.09301-4.06827-2.98224-1.91888-5.84404-2.12599-6.62808-2.16314-.65441-.03101-3.12215-.09813-6.1898,1.21671-2.01976,.8657-3.88684,2.15357-8.17302,6.9693-4.10155,4.6083-6.80063,8.38069-10.94479,11.55772-.95712,.73376-2.65896,1.94343-5.02882,2.09377-1.56563,.09933-2.85266-.30293-3.63212-.61856,5.18009-5.07566,10.36019-10.15133,15.54028-15.22699-.41415-.64493-3.66965-5.52925-9.91922-6.17789-.82737-.08587-6.58257-.58531-10.69896,3.78378-3.42903,3.63953-3.34842,8.13935-3.32711,9.32896,.02002,1.11771,.10571,5.90088,3.89328,9.42006,.68629,.63765,3.06506,2.69344,6.74043,3.10554,2.96034,.33193,5.21336-.57612,6.25849-1.01218,2.40699-1.00428,4.05192-2.71779,7.24567-6.09871,1.29712-1.37314,3.06315-3.3969,6.54312-7.38755,.1422-.16306,1.2018-1.33038,2.68629-2.81746,1.69137-1.69431,2.53705-2.54147,3.34605-3.05483,.67015-.42525,2.71645-1.68531,5.49552-1.56479,3.22723,.13995,5.3743,2.05197,5.99814,2.65185l-13.41964,13.11782c-.69148-.59713-1.51405-1.43859-2.25822-2.57462-.3653-.55764-.65218-1.09538-.87856-1.58709l-2.494,2.40898c.52036,1.08343,1.41945,2.61961,2.93963,4.07117,2.75953,2.63498,7.3896,4.85126,11.89818,3.78014,2.95624-.70232,4.86544-2.50968,8.34761-5.80611,1.59988-1.51454,2.79879-2.90391,3.59787-3.89494l-2.73311-2.67263Zm-49.62676-.00131c-.0095-1.22687,.19038-4.5156,2.81973-7.08183,.76514-.74677,2.72871-2.40123,5.70049-2.60337,3.91276-.26614,6.53257,2.19219,6.95745,2.60433l-13.40979,13.15912c-.58585-.78875-2.04385-2.97572-2.06787-6.07825Z"/>
</svg>